<?xml version="1.0" standalone="no"?>
<!DOCTYPE svg PUBLIC "-//W3C//DTD SVG 20010904//EN"
 "http://www.w3.org/TR/2001/REC-SVG-20010904/DTD/svg10.dtd">
<svg version="1.0" xmlns="http://www.w3.org/2000/svg"
 width="422.000000pt" height="422.000000pt" viewBox="0 0 422.000000 422.000000"
 preserveAspectRatio="xMidYMid meet">
<metadata>
Created by potrace 1.14, written by Peter Selinger 2001-2017
</metadata>
<g transform="translate(0.000000,422.000000) scale(0.100000,-0.100000)"
fill="#000000" stroke="none">
<path d="M2241 3044 c-111 -23 -167 -69 -156 -129 2 -11 4 -23 4 -26 1 -3 18
-11 39 -17 42 -13 82 -43 82 -61 0 -7 5 -9 10 -6 6 3 10 0 10 -8 0 -8 6 -27
14 -43 16 -32 59 -126 62 -134 1 -3 5 -15 9 -27 4 -13 11 -23 14 -23 4 0 8 -6
8 -12 0 -7 21 -57 47 -111 25 -55 46 -100 46 -102 0 -2 20 -46 45 -99 25 -53
45 -99 45 -101 0 -11 64 -141 73 -146 5 -3 8 -9 8 -13 -3 -20 2 -27 34 -51 45
-35 98 -39 147 -12 20 11 35 24 32 29 -3 4 1 11 9 13 7 3 20 21 27 40 8 19 18
35 24 35 5 0 7 3 3 6 -3 4 7 30 23 60 17 29 30 60 30 68 0 8 4 16 8 18 10 4
142 271 142 287 0 6 4 11 8 11 9 0 37 70 34 83 -1 4 3 7 8 7 6 0 10 6 10 14 0
8 5 16 10 18 6 2 12 13 13 26 0 12 5 22 9 22 5 0 13 12 19 28 6 15 9 27 7 27
-1 0 7 16 20 36 12 20 19 39 15 42 -3 4 -1 7 5 7 6 0 14 9 17 20 4 12 16 30
28 42 12 11 15 17 7 13 -8 -5 -11 -4 -7 0 4 5 13 10 20 11 7 2 22 5 35 8 12 3
32 8 44 11 49 10 70 75 36 109 -46 46 -314 59 -408 19 -8 -3 -18 -6 -22 -5
-14 3 -47 -50 -43 -70 5 -22 25 -51 32 -44 3 2 14 -5 25 -16 14 -14 19 -29 16
-51 -6 -44 -12 -61 -21 -68 -5 -3 -10 -12 -11 -20 -2 -8 -13 -35 -25 -61 -12
-26 -21 -51 -21 -54 1 -4 -2 -10 -7 -13 -4 -3 -19 -27 -33 -54 -24 -45 -34
-53 -78 -62 -20 -3 -28 9 -85 135 -92 203 -92 206 -47 244 35 29 49 78 30 102
-17 20 -69 41 -123 50 -75 12 -291 11 -356 -2z"/>
<path d="M695 2668 c-62 -33 -73 -103 -24 -149 17 -16 39 -29 49 -29 40 0 77
22 93 56 15 31 15 39 3 69 -21 49 -80 75 -121 53z"/>
<path d="M1467 2674 c-2 -2 -23 -6 -46 -9 -58 -7 -171 -48 -234 -84 -29 -16
-81 -37 -117 -47 -36 -9 -87 -32 -115 -49 -50 -31 -125 -106 -125 -124 0 -5
-6 -16 -13 -23 -7 -7 -21 -40 -31 -73 -9 -33 -34 -94 -54 -135 -20 -41 -37
-77 -37 -80 -1 -3 -5 -14 -9 -25 -28 -72 -45 -156 -48 -225 -3 -97 66 -170
164 -174 95 -4 204 27 352 100 48 24 92 41 97 39 17 -11 137 54 186 101 51 50
108 153 116 209 3 17 19 56 36 89 67 123 94 217 95 332 1 62 -2 75 -27 107
-35 47 -78 69 -138 72 -27 1 -50 1 -52 -1z"/>
<path d="M1456 1764 c-22 -21 -20 -50 5 -73 23 -21 46 -18 67 7 40 50 -27 111
-72 66z"/>
<path d="M2336 1743 c-2 -3 -22 -6 -43 -7 -66 -5 -113 -28 -113 -54 0 -5 -21
-46 -46 -91 -70 -124 -71 -191 -2 -227 55 -29 171 1 205 53 23 34 8 40 -40 16
-72 -36 -100 -42 -134 -28 -35 15 -43 37 -31 82 7 25 14 32 31 31 12 0 51 7
87 16 96 25 92 23 80 46 -8 16 -15 18 -35 10 -14 -5 -25 -8 -25 -5 0 2 -18 -2
-40 -10 -23 -8 -42 -10 -45 -5 -9 14 57 110 75 111 49 2 140 27 140 39 0 17
-52 35 -64 23z"/>
<path d="M2755 1640 c-15 -24 -33 -40 -45 -40 -27 0 -34 -17 -11 -29 19 -10
19 -11 0 -48 -25 -50 -25 -114 1 -138 25 -22 85 -15 114 15 30 29 9 46 -31 24
-45 -26 -67 -13 -58 34 11 63 37 107 65 110 60 7 72 12 60 27 -7 8 -23 15 -36
15 -27 0 -29 7 -9 34 8 10 12 23 9 27 -12 19 -35 7 -59 -31z"/>
<path d="M3368 1583 c-36 -90 -85 -263 -84 -297 2 -61 23 -56 41 11 25 89 30
98 59 101 41 3 85 30 106 65 32 51 3 102 -52 94 -25 -3 -28 0 -28 25 0 37 -27
37 -42 1z"/>
<path d="M2915 1553 c-8 -20 -21 -63 -29 -95 -11 -48 -11 -60 0 -69 15 -12 34
-4 34 14 0 32 52 85 107 111 52 25 56 29 40 41 -19 14 -53 10 -77 -10 -8 -7
-21 -15 -29 -20 -13 -7 -11 5 6 53 3 7 -3 12 -16 12 -14 0 -25 -11 -36 -37z"/>
<path d="M3200 1578 c-54 -20 -97 -77 -105 -140 -5 -40 36 -71 73 -57 64 24
121 115 103 163 -13 33 -39 46 -71 34z"/>
<path d="M3564 1565 c-11 -43 1 -143 19 -163 15 -17 15 -20 -5 -52 -30 -51
-47 -61 -90 -54 -48 7 -53 -17 -8 -36 66 -27 118 18 187 160 46 97 58 149 35
157 -8 3 -24 -21 -44 -66 -42 -93 -53 -93 -49 -1 2 50 -7 80 -24 80 -8 0 -17
-11 -21 -25z"/>
<path d="M2450 1553 c-6 -16 -18 -45 -26 -65 -22 -50 -22 -79 -1 -92 14 -9 21
-7 31 6 20 27 87 78 102 78 9 0 12 -10 10 -32 -5 -44 2 -58 31 -58 23 0 25 3
19 31 -3 17 -6 49 -6 70 0 58 -26 67 -80 28 -47 -34 -56 -33 -39 4 9 21 9 30
-1 42 -18 22 -29 19 -40 -12z"/>
</g>
</svg>
